# xmcd
#
# Track frame offsets:
#	150
#	13602
#	26198
#	37502
#	52175
#	66518
#	77727
#	89524
#	100559
#	113688
#	124283
#	143104
#	160638
#	174543
#	187050
#	199550
#	214276
#	227016
#	239365
#	257844
#	269390
#	284613
#	299387
#	317886
#
# Disc length: 4430 seconds
#
# Revision: 2
# Processed by: cddbd v1.5.2PL0 Copyright (c) Steve Scherf et al.
# Submitted via: EZCDDA 4.3.2
#
DISCID=64114c18
DTITLE=Vasile Pandelescu - Vasile Pandelescu - acordeon - vol.1
DYEAR=1900
DGENRE=
TTITLE0=Sarba de la Hulubesti
TTITLE1=Breaza de la Hubulesti
TTITLE2=Hora de la Petresti
TTITLE3=Sarba de la Patroaia
TTITLE4=Cand e omul suparat
TTITLE5=Hora de la Valea Mare
TTITLE6=Sarba de la Priboieni
TTITLE7=Cantec de ascultare de la Patroaia
TTITLE8=Hora de la Gaiesti
TTITLE9=Braul de la Corbii Mari
TTITLE10=Hora de la Cobia
TTITLE11=Cantec de dragoste
TTITLE12=Hora de la Leordeni
TTITLE13=Sarba de la Arsuri
TTITLE14=Hora de la Darmanesti
TTITLE15=Suparat am fost de mic
TTITLE16=Hora de la Olari
TTITLE17=Hora la trei de la Titu
TTITLE18=Cand aud cucul cantand
TTITLE19=Hora de la Gostinari
TTITLE20=Sarba de la Palazu
TTITLE21=Geamparalele
TTITLE22=Pusei caii la caruta
TTITLE23=Hora de la Ditesti
EXTD=
EXTT0=
EXTT1=
EXTT2=
EXTT3=
EXTT4=
EXTT5=
EXTT6=
EXTT7=
EXTT8=
EXTT9=
EXTT10=
EXTT11=
EXTT12=
EXTT13=
EXTT14=
EXTT15=
EXTT16=
EXTT17=
EXTT18=
EXTT19=
EXTT20=
EXTT21=
EXTT22=
EXTT23=
PLAYORDER=
